<?xml version="1.0" standalone="no"?>
<!DOCTYPE svg PUBLIC "-//W3C//DTD SVG 20010904//EN"
 "http://www.w3.org/TR/2001/REC-SVG-20010904/DTD/svg10.dtd">
<svg version="1.0" xmlns="http://www.w3.org/2000/svg"
 width="382.000000pt" height="382.000000pt" viewBox="0 0 382.000000 382.000000"
 preserveAspectRatio="xMidYMid meet">
<metadata>
Created by potrace 1.11, written by Peter Selinger 2001-2013
</metadata>
<g transform="translate(0.000000,382.000000) scale(0.100000,-0.100000)"
fill="#000000" stroke="none">
<path d="M2107 3466 c-109 -42 -109 -42 -243 -173 -91 -88 -118 -121 -145
-178 -19 -39 -55 -92 -82 -120 -68 -69 -140 -169 -171 -237 -14 -31 -26 -60
-26 -64 0 -12 -95 -128 -163 -197 -36 -38 -69 -77 -72 -88 -4 -10 -10 -19 -15
-19 -5 0 -12 -9 -15 -20 -3 -11 -12 -26 -18 -33 -35 -37 -107 -128 -133 -166
-15 -24 -57 -71 -91 -104 -35 -33 -63 -64 -63 -69 0 -12 -51 -85 -82 -118 -13
-14 -32 -38 -42 -55 -11 -16 -23 -34 -28 -40 -18 -22 -88 -136 -88 -144 0 -11
-138 -141 -149 -141 -8 0 -102 -113 -126 -151 -53 -85 -96 -133 -161 -177 -55
-37 -114 -183 -101 -250 19 -99 26 -114 81 -165 23 -21 53 -49 67 -62 30 -29
70 -45 109 -45 16 0 44 -9 62 -20 35 -21 112 -27 123 -9 4 5 17 14 30 19 21 8
85 85 129 155 18 28 124 164 137 175 12 10 77 108 94 141 10 19 35 53 55 75
21 23 46 57 56 75 19 38 63 96 109 145 17 17 48 57 70 88 59 84 131 174 189
237 67 74 118 137 141 174 10 17 31 44 45 60 26 29 44 58 98 155 13 25 34 56
46 70 12 14 31 42 42 63 10 21 34 56 52 77 17 21 32 43 32 49 0 6 5 11 10 11
6 0 10 6 10 13 0 6 22 41 49 77 26 36 62 92 80 125 51 93 57 97 80 44 12 -24
21 -53 21 -64 0 -11 16 -54 36 -95 38 -78 41 -84 69 -163 9 -26 32 -69 50 -96
31 -44 100 -191 90 -191 -3 0 4 -15 15 -32 11 -18 26 -48 34 -65 8 -18 26 -48
39 -65 27 -35 55 -101 81 -185 9 -28 21 -64 28 -80 6 -15 12 -30 13 -33 6 -17
23 -56 63 -140 24 -52 50 -111 57 -131 7 -19 46 -88 86 -153 118 -188 129
-207 171 -286 81 -154 142 -242 226 -329 56 -58 79 -71 126 -71 50 0 69 9 55
26 -9 11 -5 11 24 -1 38 -16 118 -19 152 -6 13 5 28 2 45 -10 36 -26 132 -31
128 -6 -2 6 4 12 12 12 22 1 60 24 60 36 0 6 -5 7 -12 3 -7 -5 -8 -3 -4 5 5 7
11 10 14 7 8 -8 32 29 42 66 6 19 6 38 -1 49 -6 12 -6 19 0 19 12 0 5 62 -13
103 -22 54 -104 168 -178 250 -38 43 -81 99 -95 125 -32 62 -52 97 -89 157
-17 28 -47 82 -67 121 -19 39 -64 109 -99 155 -35 47 -70 101 -79 120 -9 18
-32 65 -50 102 -18 38 -41 74 -51 80 -10 7 -26 36 -34 65 -13 45 -97 184 -139
232 -24 27 -112 214 -124 263 -11 45 -58 157 -71 167 -25 20 -80 161 -80 206
0 18 -13 58 -30 89 -16 31 -30 68 -30 81 0 14 -8 50 -19 82 -10 31 -21 83 -24
115 -13 130 -177 300 -301 312 -29 3 -66 -5 -129 -29z"/>
<path d="M1872 1999 c-44 -22 -98 -77 -122 -126 -21 -42 -82 -126 -102 -141
-10 -7 -18 -20 -18 -28 0 -8 -4 -14 -10 -14 -5 0 -10 -6 -10 -13 0 -7 -13 -28
-30 -47 -16 -19 -29 -39 -30 -44 0 -5 -7 -16 -15 -25 -71 -73 -185 -224 -185
-245 0 -3 -17 -43 -39 -89 -21 -45 -44 -97 -51 -114 -7 -18 -42 -58 -79 -89
-118 -102 -157 -151 -145 -186 4 -12 2 -18 -4 -14 -5 3 -10 -17 -10 -50 0 -49
1 -54 13 -37 17 21 19 14 5 -21 -6 -18 -5 -33 3 -49 16 -31 42 -57 57 -57 6 0
9 -4 5 -10 -8 -14 49 -40 87 -40 24 0 39 -7 52 -25 10 -13 33 -29 52 -35 40
-14 94 -4 94 15 0 8 6 12 14 9 14 -6 66 32 66 48 0 5 21 41 47 81 26 40 63
100 83 133 19 34 56 90 82 125 93 125 106 145 158 242 28 53 53 97 56 97 2 0
15 -24 29 -52 15 -29 33 -64 40 -78 7 -14 25 -54 38 -90 49 -125 96 -223 126
-265 17 -24 31 -48 31 -53 0 -6 6 -17 13 -24 7 -7 28 -35 47 -63 33 -48 141
-161 209 -217 27 -23 42 -28 88 -28 57 0 96 19 136 64 10 12 15 15 11 7 -4 -8
9 -2 29 13 20 16 37 37 37 48 0 10 5 16 10 13 9 -6 14 10 13 42 -1 7 3 10 8 7
12 -7 11 33 -1 57 -8 15 -7 21 4 25 17 7 5 60 -13 57 -14 -4 -15 14 -1 19 14
4 -45 97 -67 105 -24 9 -60 47 -68 73 -3 11 -10 20 -15 20 -5 0 -19 27 -31 60
-12 33 -26 60 -32 60 -6 0 -7 3 -4 7 4 3 -4 21 -18 39 -14 18 -25 36 -25 41 0
4 -16 25 -35 46 -19 21 -35 42 -35 46 0 4 -12 18 -26 32 -14 13 -48 67 -74
119 -46 91 -60 139 -120 398 -12 50 -25 92 -30 92 -4 0 -13 13 -20 29 -12 31
-85 103 -110 110 -54 14 -128 10 -168 -10z m848 -1499 c0 -5 -5 -10 -11 -10
-5 0 -7 5 -4 10 3 6 8 10 11 10 2 0 4 -4 4 -10z"/>
</g>
</svg>
